<svg xmlns="http://www.w3.org/2000/svg" viewBox="0 0 800 600">
  <!-- Background -->
  <rect width="800" height="600" fill="#f8f9fa"/>
  
  <!-- Title -->
  <text x="400" y="40" font-family="Arial" font-size="24" text-anchor="middle" font-weight="bold">Kubefed Migration Pattern Visualization</text>
  
  <!-- Mandelbrot Pattern Section -->
  <g transform="translate(50, 100)">
    <text x="0" y="0" font-family="Arial" font-size="18" font-weight="bold">Mandelbrot Pattern: Migration Progress</text>
    
    <!-- Mandelbrot Sequence Visualization -->
    <g transform="translate(0, 20)">
      <!-- Axes -->
      <line x1="0" y1="100" x2="350" y2="100" stroke="#333" stroke-width="2"/>
      <line x1="0" y1="0" x2="0" y2="100" stroke="#333" stroke-width="2"/>
      
      <!-- Labels -->
      <text x="-5" y="105" font-family="Arial" font-size="10" text-anchor="end">0</text>
      <text x="-5" y="55" font-family="Arial" font-size="10" text-anchor="end">0.5</text>
      <text x="-5" y="5" font-family="Arial" font-size="10" text-anchor="end">1.0</text>
      
      <!-- Mandelbrot Values [0, 1, 0.5, 0.75, 0.625, 0.688] -->
      <circle cx="10" cy="100" r="5" fill="#4285f4"/>
      <circle cx="60" cy="0" r="5" fill="#4285f4"/>
      <circle cx="110" cy="50" r="5" fill="#4285f4"/>
      <circle cx="160" cy="25" r="5" fill="#4285f4"/>
      <circle cx="210" cy="37.5" r="5" fill="#4285f4"/>
      <circle cx="260" cy="31.2" r="5" fill="#4285f4"/>
      
      <!-- Connecting Lines -->
      <polyline points="10,100 60,0 110,50 160,25 210,37.5 260,31.2" fill="none" stroke="#4285f4" stroke-width="2"/>
      
      <!-- Labels -->
      <text x="10" y="115" font-family="Arial" font-size="10" text-anchor="middle">Initial</text>
      <text x="60" y="115" font-family="Arial" font-size="10" text-anchor="middle">Goal</text>
      <text x="110" y="115" font-family="Arial" font-size="10" text-anchor="middle">Convert</text>
      <text x="160" y="115" font-family="Arial" font-size="10" text-anchor="middle">Test</text>
      <text x="210" y="115" font-family="Arial" font-size="10" text-anchor="middle">Refine</text>
      <text x="260" y="115" font-family="Arial" font-size="10" text-anchor="middle">Finalize</text>
      
      <!-- Current Status Indicators -->
      <line x1="10" y1="130" x2="10" y2="140" stroke="#ea4335" stroke-width="2"/>
      <polygon points="10,145 5,135 15,135" fill="#ea4335"/>
      <text x="10" y="160" font-family="Arial" font-size="10" text-anchor="middle" fill="#ea4335">Current</text>
    </g>
  </g>
  
  <!-- Golden Spiral (Fibonacci) Section -->
  <g transform="translate(450, 100)">
    <text x="0" y="0" font-family="Arial" font-size="18" font-weight="bold">Golden Spiral Pattern: Timeline</text>
    
    <!-- Golden Spiral Visualization -->
    <g transform="translate(150, 100)">
      <!-- Spiral based on Fibonacci sequence [1,1,2,3,5,8,13,21] -->
      <path d="M 0,0 
               A 1,1 0 0 1 1,1 
               A 2,2 0 0 0 -1,3 
               A 3,3 0 0 1 -4,0 
               A 5,5 0 0 0 1,-5 
               A 8,8 0 0 1 9,3 
               A 13,13 0 0 0 -4,16 
               A 21,21 0 0 1 -25,-5" 
            fill="none" stroke="#fbbc05" stroke-width="2"/>
      
      <!-- Squares illustrating Fibonacci areas -->
      <rect x="-25" y="-25" width="21" height="21" fill="none" stroke="#fbbc05" stroke-width="1" opacity="0.5"/>
      <rect x="-4" y="-25" width="13" height="13" fill="none" stroke="#fbbc05" stroke-width="1" opacity="0.5"/>
      <rect x="-4" y="-12" width="8" height="8" fill="none" stroke="#fbbc05" stroke-width="1" opacity="0.5"/>
      <rect x="-4" y="-4" width="5" height="5" fill="none" stroke="#fbbc05" stroke-width="1" opacity="0.5"/>
      <rect x="-4" y="1" width="3" height="3" fill="none" stroke="#fbbc05" stroke-width="1" opacity="0.5"/>
      <rect x="-1" y="1" width="2" height="2" fill="none" stroke="#fbbc05" stroke-width="1" opacity="0.5"/>
      <rect x="-1" y="-1" width="1" height="1" fill="none" stroke="#fbbc05" stroke-width="1" opacity="0.5"/>
      <rect x="0" y="-1" width="1" height="1" fill="none" stroke="#fbbc05" stroke-width="1" opacity="0.5"/>
      
      <!-- Center marker -->
      <circle cx="0" cy="0" r="2" fill="#fbbc05"/>
      
      <!-- Labels -->
      <text x="0" y="-30" font-family="Arial" font-size="10" text-anchor="middle">Milestone Timeline Progression</text>
    </g>
  </g>
  
  <!-- Wave Interference Pattern Section -->
  <g transform="translate(50, 300)">
    <text x="0" y="0" font-family="Arial" font-size="18" font-weight="bold">Wave Interference Pattern: Resource Allocation</text>
    
    <!-- Wave Interference Visualization [1, 2, 1, 0, 1, 2, 1, 0] -->
    <g transform="translate(0, 50)">
      <!-- Axes -->
      <line x1="0" y1="60" x2="400" y2="60" stroke="#333" stroke-width="2"/>
      <line x1="0" y1="0" x2="0" y2="60" stroke="#333" stroke-width="2"/>
      
      <!-- Wave Plotting -->
      <polyline points="
        0,40 
        50,20 
        100,40 
        150,60 
        200,40 
        250,20 
        300,40 
        350,60" 
        fill="none" stroke="#34a853" stroke-width="3"/>
      
      <!-- Markers -->
      <circle cx="0" cy="40" r="5" fill="#34a853"/>
      <circle cx="50" cy="20" r="5" fill="#34a853"/>
      <circle cx="100" cy="40" r="5" fill="#34a853"/>
      <circle cx="150" cy="60" r="5" fill="#34a853"/>
      <circle cx="200" cy="40" r="5" fill="#34a853"/>
      <circle cx="250" cy="20" r="5" fill="#34a853"/>
      <circle cx="300" cy="40" r="5" fill="#34a853"/>
      <circle cx="350" cy="60" r="5" fill="#34a853"/>
      
      <!-- Labels -->
      <text x="0" y="75" font-family="Arial" font-size="10" text-anchor="middle">Plan</text>
      <text x="50" y="75" font-family="Arial" font-size="10" text-anchor="middle">Implement</text>
      <text x="100" y="75" font-family="Arial" font-size="10" text-anchor="middle">Test</text>
      <text x="150" y="75" font-family="Arial" font-size="10" text-anchor="middle">Observe</text>
      <text x="200" y="75" font-family="Arial" font-size="10" text-anchor="middle">Adjust</text>
      <text x="250" y="75" font-family="Arial" font-size="10" text-anchor="middle">Finalize</text>
      <text x="300" y="75" font-family="Arial" font-size="10" text-anchor="middle">Verify</text>
      <text x="350" y="75" font-family="Arial" font-size="10" text-anchor="middle">Complete</text>
      
      <!-- Resource allocation labels -->
      <text x="-10" y="40" font-family="Arial" font-size="10" text-anchor="end">1 Dev</text>
      <text x="-10" y="20" font-family="Arial" font-size="10" text-anchor="end">2 Devs</text>
      <text x="-10" y="60" font-family="Arial" font-size="10" text-anchor="end">0 Devs</text>
    </g>
  </g>
  
  <!-- Bifurcation Pattern Section -->
  <g transform="translate(450, 300)">
    <text x="0" y="0" font-family="Arial" font-size="18" font-weight="bold">Bifurcation Pattern: Team Scaling</text>
    
    <!-- Bifurcation Visualization [1, 2, 4, 8, 4, 2, 1] -->
    <g transform="translate(40, 30)">
      <!-- Tree structure -->
      <line x1="90" y1="0" x2="90" y2="20" stroke="#333" stroke-width="2"/>
      
      <!-- First split -->
      <line x1="90" y1="20" x2="60" y2="40" stroke="#333" stroke-width="2"/>
      <line x1="90" y1="20" x2="120" y2="40" stroke="#333" stroke-width="2"/>
      
      <!-- Second split -->
      <line x1="60" y1="40" x2="45" y2="60" stroke="#333" stroke-width="2"/>
      <line x1="60" y1="40" x2="75" y2="60" stroke="#333" stroke-width="2"/>
      <line x1="120" y1="40" x2="105" y2="60" stroke="#333" stroke-width="2"/>
      <line x1="120" y1="40" x2="135" y2="60" stroke="#333" stroke-width="2"/>
      
      <!-- Third split -->
      <line x1="45" y1="60" x2="38" y2="80" stroke="#333" stroke-width="2"/>
      <line x1="45" y1="60" x2="52" y2="80" stroke="#333" stroke-width="2"/>
      <line x1="75" y1="60" x2="68" y2="80" stroke="#333" stroke-width="2"/>
      <line x1="75" y1="60" x2="82" y2="80" stroke="#333" stroke-width="2"/>
      <line x1="105" y1="60" x2="98" y2="80" stroke="#333" stroke-width="2"/>
      <line x1="105" y1="60" x2="112" y2="80" stroke="#333" stroke-width="2"/>
      <line x1="135" y1="60" x2="128" y2="80" stroke="#333" stroke-width="2"/>
      <line x1="135" y1="60" x2="142" y2="80" stroke="#333" stroke-width="2"/>
      
      <!-- Nodes with values -->
      <circle cx="90" cy="0" r="15" fill="#db4437" stroke="#333" stroke-width="1"/>
      <text x="90" y="5" font-family="Arial" font-size="12" text-anchor="middle">1</text>
      
      <circle cx="60" cy="40" r="15" fill="#db4437" stroke="#333" stroke-width="1"/>
      <text x="60" y="45" font-family="Arial" font-size="12" text-anchor="middle">2</text>
      
      <circle cx="120" cy="40" r="15" fill="#db4437" stroke="#333" stroke-width="1"/>
      <text x="120" y="45" font-family="Arial" font-size="12" text-anchor="middle">2</text>
      
      <circle cx="45" cy="60" r="10" fill="#db4437" stroke="#333" stroke-width="1"/>
      <text x="45" y="63" font-family="Arial" font-size="9" text-anchor="middle">4</text>
      
      <circle cx="75" cy="60" r="10" fill="#db4437" stroke="#333" stroke-width="1"/>
      <text x="75" y="63" font-family="Arial" font-size="9" text-anchor="middle">4</text>
      
      <circle cx="105" cy="60" r="10" fill="#db4437" stroke="#333" stroke-width="1"/>
      <text x="105" y="63" font-family="Arial" font-size="9" text-anchor="middle">4</text>
      
      <circle cx="135" cy="60" r="10" fill="#db4437" stroke="#333" stroke-width="1"/>
      <text x="135" y="63" font-family="Arial" font-size="9" text-anchor="middle">4</text>
      
      <circle cx="38" cy="80" r="7" fill="#db4437" stroke="#333" stroke-width="1"/>
      <text x="38" y="83" font-family="Arial" font-size="7" text-anchor="middle">8</text>
      
      <circle cx="52" cy="80" r="7" fill="#db4437" stroke="#333" stroke-width="1"/>
      <text x="52" y="83" font-family="Arial" font-size="7" text-anchor="middle">8</text>
      
      <circle cx="68" cy="80" r="7" fill="#db4437" stroke="#333" stroke-width="1"/>
      <text x="68" y="83" font-family="Arial" font-size="7" text-anchor="middle">8</text>
      
      <circle cx="82" cy="80" r="7" fill="#db4437" stroke="#333" stroke-width="1"/>
      <text x="82" y="83" font-family="Arial" font-size="7" text-anchor="middle">8</text>
      
      <circle cx="98" cy="80" r="7" fill="#db4437" stroke="#333" stroke-width="1"/>
      <text x="98" y="83" font-family="Arial" font-size="7" text-anchor="middle">8</text>
      
      <circle cx="112" cy="80" r="7" fill="#db4437" stroke="#333" stroke-width="1"/>
      <text x="112" y="83" font-family="Arial" font-size="7" text-anchor="middle">8</text>
      
      <circle cx="128" cy="80" r="7" fill="#db4437" stroke="#333" stroke-width="1"/>
      <text x="128" y="83" font-family="Arial" font-size="7" text-anchor="middle">8</text>
      
      <circle cx="142" cy="80" r="7" fill="#db4437" stroke="#333" stroke-width="1"/>
      <text x="142" y="83" font-family="Arial" font-size="7" text-anchor="middle">8</text>
      
      <!-- Labels -->
      <text x="90" y="110" font-family="Arial" font-size="10" text-anchor="middle">Team Growth Pattern [1,2,4,8]</text>
      <text x="90" y="125" font-family="Arial" font-size="10" text-anchor="middle">Team Contraction Pattern [8,4,2,1]</text>
    </g>
  </g>
  
  <!-- Application Status Balance Pattern -->
  <g transform="translate(200, 490)">
    <text x="0" y="0" font-family="Arial" font-size="18" font-weight="bold">Application Status Pattern</text>
    
    <!-- Balance Scales Visualization -->
    <g transform="translate(100, 40)">
      <!-- Scale -->
      <line x1="-80" y1="0" x2="80" y2="0" stroke="#333" stroke-width="3"/>
      <rect x="-5" y="0" width="10" height="40" fill="#333"/>
      
      <!-- Left Scale Pan - Not Started -->
      <path d="M -80,0 C -80,20 -40,40 -40,40 L -120,40 C -120,40 -80,20 -80,0" fill="#4285f4" stroke="#333" stroke-width="1"/>
      <text x="-80" y="25" font-family="Arial" font-size="10" text-anchor="middle">Not Started</text>
      <text x="-80" y="40" font-family="Arial" font-size="10" text-anchor="middle">2 Apps</text>
      
      <!-- Right Scale Pan - Completed -->
      <path d="M 80,0 C 80,20 40,40 40,40 L 120,40 C 120,40 80,20 80,0" fill="#34a853" stroke="#333" stroke-width="1"/>
      <text x="80" y="25" font-family="Arial" font-size="10" text-anchor="middle">Completed</text>
      <text x="80" y="40" font-family="Arial" font-size="10" text-anchor="middle">2 Apps</text>
      
      <!-- Center -->
      <circle cx="0" cy="0" r="5" fill="#333"/>
    </g>
  </g>
  
  <!-- Mathematical Names -->
  <g transform="translate(400, 530)">
    <rect x="-150" y="0" width="300" height="60" rx="10" ry="10" fill="#f0f0f0" stroke="#333" stroke-width="1"/>
    <text x="0" y="20" font-family="Arial" font-size="14" text-anchor="middle" font-weight="bold">Mathematical & CS Pattern Names</text>
    <text x="0" y="40" font-family="Arial" font-size="12" text-anchor="middle">Mandelbrot Set • Golden Ratio • Wave Interference</text>
    <text x="0" y="55" font-family="Arial" font-size="12" text-anchor="middle">Bifurcation Diagram • Fractal Geometry • Self-Similarity</text>
  </g>
</svg>
